<svg width="800" height="600" xmlns="http://www.w3.org/2000/svg">

 <g>
  <title>background</title>
  <rect fill="none" id="canvas_background" height="602" width="802" y="-1" x="-1"/>
 </g>
 <g>
  <title>Layer 1</title>
  <radialGradient spreadMethod="pad" r="1" cy="1" cx="0.5" id="svg_7">
   <stop stop-color="#ff7854" offset="0"/>
   <stop stop-color="#fd267d" offset="1"/>
  </radialGradient>
  <g stroke="null" transform="rotate(-0.1982879638671875 430.34655761719955,269.6669311523467) " id="svg_10">
   <path stroke-width="84" stroke="null" stroke-dasharray="2,2" id="svg_9" fill="url(#svg_7)" d="m357.43314,222.96519c-0.62497,0 -1.04162,0 -1.45827,-0.48205c-14.16604,-21.69216 -17.70754,-59.05089 -18.54084,-73.2713c-0.20832,-2.77178 -2.91654,-4.21792 -4.99978,-2.89229c-43.74805,28.32032 -84.37124,95.56603 -84.37124,160.40149c0,111.71464 66.97618,205.35247 182.28355,205.35247c108.01602,0 182.28355,-96.40961 182.28355,-205.23196c0,-142.32469 -87.80859,-236.56508 -166.03427,-279.22633c-2.08324,-1.20512 -4.37481,0.84358 -4.16648,3.37434c10.20788,76.76615 -3.74983,160.03995 -85.10038,192.21666l0.10416,-0.24102z"/>
  </g>
  <line stroke-linecap="null" stroke-linejoin="null" id="svg_13" y2="347" x2="199" y1="337" x1="84" stroke-opacity="null" stroke-dasharray="2,2" stroke-width="99" stroke="null" fill="none"/>
  <line stroke-linecap="null" stroke-linejoin="null" id="svg_15" y2="338" x2="204" y1="295" x1="297" stroke-opacity="null" stroke-dasharray="2,2" stroke-width="99" stroke="null" fill="none"/>
  <line stroke-linecap="null" stroke-linejoin="null" id="svg_16" y2="469" x2="324" y1="339" x1="281" stroke-opacity="null" stroke-dasharray="2,2" stroke-width="99" stroke="null" fill="none"/>
  <path d="m198,385c2,3 3.02026,8.33978 9,24c4.31029,11.28812 22.48114,41.50037 36,55c26.03772,26.0007 38.92157,33.11438 52,42c2.98233,2.02625 4,2 5,2l1,0l0,0" id="svg_18" stroke-opacity="null" stroke-dasharray="2,2" stroke-width="99" stroke="null" fill="none"/>
  <g stroke="null" id="svg_24">
   <path stroke="null" id="svg_23" fill="#ffffff" d="m867.2543,541.44521zm-358.87936,-226.41381l-6.65783,-59.58535a10.01181,8.73918 0 0 0 -9.96525,-7.89127l-0.4993,0a10.01253,8.7398 0 0 0 -10.01253,8.7398l0,107.4701a10.62143,9.2713 0 0 1 -9.24173,10.12171a10.62143,9.2713 0 0 1 -9.24244,-10.12171l0,-107.4701a10.01253,8.7398 0 0 0 -20.02506,0l0,107.4701a10.62143,9.2713 0 0 1 -9.24173,10.12171a10.62143,9.2713 0 0 1 -9.24173,-10.12171l0,-107.4701a10.01253,8.7398 0 0 0 -20.02506,0l0,107.4701a10.62143,9.2713 0 0 1 -9.24101,10.12171a10.62143,9.2713 0 0 1 -9.24244,-10.12171l0,-107.4701a10.01181,8.73918 0 0 0 -10.01181,-8.7398l-0.50002,0a10.01253,8.7398 0 0 0 -9.96453,7.89127l-6.65711,59.58535c-6.94294,62.12781 -2.19564,87.42677 24.83468,111.28505a84.57675,73.8259 0 0 1 27.8484,55.89546c4.66062,15.46239 40.4785,15.46239 44.40199,0a84.57603,73.82527 0 0 1 27.8484,-55.89546c27.03103,-23.85827 31.77834,-49.15724 24.83612,-111.28505"/>
  </g>
 </g>
</svg>